<svg width="16" height="16" viewBox="0 0 16 16" fill="none" xmlns="http://www.w3.org/2000/svg">
<path fill-rule="evenodd" clip-rule="evenodd" d="M4 2H7.33333V3.33333H4C3.63181 3.33333 3.33333 3.63181 3.33333 4V12C3.33333 12.3682 3.63181 12.6667 4 12.6667H7.33333V14H4C2.89543 14 2 13.1046 2 12V4C2 2.89543 2.89543 2 4 2ZM7.60947 7.33333L9.33333 5.60947C9.59368 5.34912 9.59368 4.92701 9.33333 4.66666C9.07298 4.40631 8.65087 4.40631 8.39052 4.66666L5.52859 7.52859C5.26825 7.78894 5.26825 8.21105 5.52859 8.4714L8.39052 11.3333C8.65087 11.5937 9.07298 11.5937 9.33333 11.3333C9.59368 11.073 9.59368 10.6509 9.33333 10.3905L7.60948 8.66667H14.6666V7.33333H7.60947Z" fill="#1E1E1E"/>
</svg>
