<svg width="24" height="24" viewBox="0 0 24 24" fill="none" xmlns="http://www.w3.org/2000/svg">
<path d="M14 12C14 11.1333 13.8162 10.3094 13.4855 9.5654C12.8755 10.1953 12.5 11.0538 12.5 12C12.5 12.9462 12.8755 13.8047 13.4855 14.4346C13.8162 13.6906 14 12.8667 14 12Z" fill="black"/>
<path fill-rule="evenodd" clip-rule="evenodd" d="M12 7.52779C10.9385 6.57771 9.53671 6 8 6C4.68629 6 2 8.68629 2 12C2 15.3137 4.68629 18 8 18C9.53671 18 10.9385 17.4223 12 16.4722C13.0615 17.4223 14.4633 18 16 18C19.3137 18 22 15.3137 22 12C22 8.68629 19.3137 6 16 6C14.4633 6 13.0615 6.57771 12 7.52779ZM8 16C9.0648 16 10.0324 15.5839 10.7492 14.9055C10.2718 14.0447 10 13.0541 10 12C10 10.9459 10.2718 9.95532 10.7492 9.09447C10.0324 8.41606 9.0648 8 8 8C5.79086 8 4 9.79086 4 12C4 14.2091 5.79086 16 8 16ZM20 12C20 14.2091 18.2091 16 16 16C13.7909 16 12 14.2091 12 12C12 9.79086 13.7909 8 16 8C18.2091 8 20 9.79086 20 12Z" fill="black"/>
</svg>
