<svg width="16" height="16" viewBox="0 0 16 16" fill="none" xmlns="http://www.w3.org/2000/svg">
<path fill-rule="evenodd" clip-rule="evenodd" d="M9.99996 6.00004V4.66671C9.99996 3.56214 9.10453 2.66671 7.99996 2.66671C6.89539 2.66671 5.99996 3.56214 5.99996 4.66671V6.00004H9.99996ZM4.66663 4.66671V6.00004H3.99996C3.26358 6.00004 2.66663 6.59699 2.66663 7.33337V12.6667C2.66663 13.4031 3.26358 14 3.99996 14H12C12.7363 14 13.3333 13.4031 13.3333 12.6667V7.33337C13.3333 6.59699 12.7363 6.00004 12 6.00004H11.3333V4.66671C11.3333 2.82576 9.84091 1.33337 7.99996 1.33337C6.15901 1.33337 4.66663 2.82576 4.66663 4.66671ZM3.99996 7.33337H12V12.6667H3.99996V7.33337ZM7.99996 8.66671C7.63177 8.66671 7.33329 8.96518 7.33329 9.33337V10.6667C7.33329 11.0349 7.63177 11.3334 7.99996 11.3334C8.36815 11.3334 8.66663 11.0349 8.66663 10.6667V9.33337C8.66663 8.96518 8.36815 8.66671 7.99996 8.66671Z" fill="#1E1E1E"/>
</svg>
