<svg width="24" height="24" viewBox="0 0 24 24" fill="none" xmlns="http://www.w3.org/2000/svg">
<path fill-rule="evenodd" clip-rule="evenodd" d="M6.046 14.7L4.3585 12L6.046 9.29999C7.32905 7.24711 9.57915 6 12 6C14.4209 6 16.671 7.24711 17.954 9.29999L19.6415 12L17.954 14.7C16.671 16.7529 14.4209 18 12 18C9.57915 18 7.32905 16.7529 6.046 14.7ZM4.35 15.76L2 12L4.35001 8.23999C5.99853 5.60235 8.88957 4 12 4C15.1104 4 18.0015 5.60235 19.65 8.23999L22 12L19.65 15.76C18.0015 18.3976 15.1104 20 12 20C8.88957 20 5.99853 18.3976 4.35 15.76ZM12 15C13.6569 15 15 13.6569 15 12C15 10.3431 13.6569 9 12 9C10.3431 9 9 10.3431 9 12C9 13.6569 10.3431 15 12 15Z" fill="black"/>
</svg>
