<svg width="16" height="16" viewBox="0 0 16 16" fill="none" xmlns="http://www.w3.org/2000/svg">
<path fill-rule="evenodd" clip-rule="evenodd" d="M3.33333 6.66669H5.5809L12.6667 3.94139V11.392L5.5809 8.66669H3.33333V6.66669ZM7.33333 10.7692L5.33333 10V12H7.33333V10.7692ZM8.66667 11.2821L12.188 12.6364C13.0614 12.9723 14 12.3277 14 11.392V3.94139C14 3.00569 13.0614 2.36103 12.188 2.69693L5.33333 5.33335H3.33333C2.59695 5.33335 2 5.93031 2 6.66669V8.66669C2 9.40307 2.59695 10 3.33333 10L4 10V12C4 12.7364 4.59695 13.3334 5.33333 13.3334H7.33333C8.06971 13.3334 8.66667 12.7364 8.66667 12V11.2821Z" fill="#1E1E1E"/>
</svg>
