<svg width="24" height="24" viewBox="0 0 24 24" fill="none" xmlns="http://www.w3.org/2000/svg">
<path fill-rule="evenodd" clip-rule="evenodd" d="M19.364 4.63603C19.7545 5.02656 19.7545 5.65972 19.364 6.05025L13.4142 12L19.364 17.9497C19.7545 18.3403 19.7545 18.9734 19.364 19.364C18.9734 19.7545 18.3403 19.7545 17.9497 19.364L12 13.4142L6.05025 19.364C5.65972 19.7545 5.02656 19.7545 4.63603 19.364C4.24551 18.9734 4.24551 18.3403 4.63603 17.9497L10.5858 12L4.63604 6.05025C4.24551 5.65972 4.24551 5.02656 4.63604 4.63603C5.02656 4.24551 5.65972 4.24551 6.05025 4.63603L12 10.5858L17.9497 4.63603C18.3403 4.24551 18.9734 4.24551 19.364 4.63603Z" fill="black"/>
</svg>
