<svg width="24" height="24" viewBox="0 0 24 24" fill="none" xmlns="http://www.w3.org/2000/svg">
<path fill-rule="evenodd" clip-rule="evenodd" d="M15.0001 8C15.0001 8.85748 14.6429 9.77153 14.0332 10.4654C13.4279 11.1543 12.6943 11.5 12.0001 11.5C11.3059 11.5 10.5723 11.1543 9.96702 10.4654C9.35733 9.77153 9.0001 8.85748 9.0001 8C9.0001 6.34315 10.3432 5 12.0001 5C13.657 5 15.0001 6.34315 15.0001 8ZM17.0001 8C17.0001 10.7614 14.7615 13.5 12.0001 13.5C9.23868 13.5 7.0001 10.7614 7.0001 8C7.0001 5.23858 9.23868 3 12.0001 3C14.7615 3 17.0001 5.23858 17.0001 8ZM17.6229 18.8072C17.5845 18.9223 17.4767 19 17.3554 19H6.64485C6.52348 19 6.41574 18.9223 6.37736 18.8072C6.34144 18.6994 6.37369 18.5806 6.45918 18.5058L6.80134 18.2065C8.05859 17.1064 9.67239 16.5 11.343 16.5H12.6572C14.3278 16.5 15.9416 17.1064 17.1989 18.2065L17.541 18.5058C17.6265 18.5806 17.6588 18.6994 17.6229 18.8072ZM4.47999 19.4397C4.18927 18.5675 4.4503 17.6061 5.14217 17.0007L5.48433 16.7013C7.10616 15.2822 9.18795 14.5 11.343 14.5H12.6572C14.8123 14.5 16.894 15.2822 18.5159 16.7013L18.858 17.0007C19.5499 17.6061 19.8109 18.5675 19.5202 19.4397C19.2096 20.3715 18.3376 21 17.3554 21H6.64485C5.66262 21 4.7906 20.3715 4.47999 19.4397Z" fill="black"/>
</svg>
