<svg width="16" height="16" viewBox="0 0 16 16" fill="none" xmlns="http://www.w3.org/2000/svg">
<path fill-rule="evenodd" clip-rule="evenodd" d="M11.6391 3.33333H4.36094C4.03504 3.33333 3.75692 3.56894 3.70334 3.8904L2.9073 8.66667H13.0927L12.2967 3.8904C12.2431 3.56894 11.965 3.33333 11.6391 3.33333ZM2.12032 10H3.33335V12C3.33335 13.1046 4.22878 14 5.33335 14H10.6667C11.7713 14 12.6667 13.1046 12.6667 12V10H13.8797C14.2917 10 14.605 9.63009 14.5373 9.22373L13.6119 3.6712C13.4512 2.70683 12.6168 2 11.6391 2H4.36094C3.38326 2 2.54888 2.70683 2.38815 3.6712L1.46273 9.22373C1.395 9.63009 1.70836 10 2.12032 10ZM4.66668 10H11.3333V12C11.3333 12.3682 11.0349 12.6667 10.6667 12.6667H8.66668V10.6667H7.33335V12.6667H5.33335C4.96516 12.6667 4.66668 12.3682 4.66668 12V10Z" fill="#1E1E1E"/>
</svg>
