<svg width="24" height="24" viewBox="0 0 24 24" fill="none" xmlns="http://www.w3.org/2000/svg">
<path fill-rule="evenodd" clip-rule="evenodd" d="M11.0001 3H13.0001V6.08296C14.4507 6.32632 15.7248 7.09018 16.6238 8.17593L19.2945 6.63397L20.2945 8.36602L17.625 9.90726C17.8675 10.5588 18.0001 11.2639 18.0001 12C18.0001 12.7361 17.8675 13.4412 17.625 14.0927L20.2945 15.634L19.2945 17.366L16.6238 15.8241C15.7248 16.9098 14.4507 17.6737 13.0001 17.917V21H11.0001V17.917C9.54956 17.6737 8.27551 16.9099 7.37653 15.8242L4.70605 17.366L3.70605 15.634L6.37521 14.0929C6.13265 13.4413 6.00008 12.7361 6.00008 12C6.00008 11.2639 6.13265 10.5587 6.37521 9.90706L3.70606 8.36602L4.70606 6.63397L7.37653 8.17577C8.27552 7.09011 9.54956 6.32631 11.0001 6.08296V3ZM12 16C14.2091 16 16 14.2091 16 12C16 9.79086 14.2091 8 12 8C9.79086 8 8 9.79086 8 12C8 14.2091 9.79086 16 12 16Z" fill="black"/>
</svg>
