<svg width="24" height="24" viewBox="0 0 24 24" fill="none" xmlns="http://www.w3.org/2000/svg">
<path fill-rule="evenodd" clip-rule="evenodd" d="M15 9V7C15 5.34315 13.6569 4 12 4C10.3431 4 9 5.34315 9 7V9H15ZM7 7V9H6C4.89543 9 4 9.89543 4 11V19C4 20.1046 4.89543 21 6 21H18C19.1046 21 20 20.1046 20 19V11C20 9.89543 19.1046 9 18 9H17V7C17 4.23858 14.7614 2 12 2C9.23858 2 7 4.23858 7 7ZM6 11H18V19H6V11ZM12 13C11.4477 13 11 13.4477 11 14V16C11 16.5523 11.4477 17 12 17C12.5523 17 13 16.5523 13 16V14C13 13.4477 12.5523 13 12 13Z" fill="black"/>
</svg>
