<svg width="16" height="16" viewBox="0 0 16 16" fill="none" xmlns="http://www.w3.org/2000/svg">
<path fill-rule="evenodd" clip-rule="evenodd" d="M12.9094 3.09077C13.1697 3.35112 13.1697 3.77323 12.9094 4.03358L8.94289 8.00008L12.9094 11.9666C13.1697 12.2269 13.1697 12.649 12.9094 12.9094C12.649 13.1697 12.2269 13.1697 11.9666 12.9094L8.00008 8.94289L4.03358 12.9094C3.77323 13.1697 3.35112 13.1697 3.09077 12.9094C2.83042 12.649 2.83042 12.2269 3.09077 11.9666L7.05727 8.00008L3.09077 4.03358C2.83042 3.77323 2.83042 3.35112 3.09077 3.09077C3.35112 2.83042 3.77323 2.83042 4.03358 3.09077L8.00008 7.05727L11.9666 3.09077C12.2269 2.83042 12.649 2.83042 12.9094 3.09077Z" fill="#1E1E1E"/>
</svg>
