<svg width="16" height="16" viewBox="0 0 16 16" fill="none" xmlns="http://www.w3.org/2000/svg">
<path fill-rule="evenodd" clip-rule="evenodd" d="M10.0001 5.33333C10.0001 5.90499 9.76196 6.51435 9.3555 6.97696C8.952 7.4362 8.46292 7.66667 8.00011 7.66667C7.5373 7.66667 7.04822 7.4362 6.64472 6.97696C6.23826 6.51435 6.00011 5.90499 6.00011 5.33333C6.00011 4.22876 6.89554 3.33333 8.00011 3.33333C9.10468 3.33333 10.0001 4.22876 10.0001 5.33333ZM11.3334 5.33333C11.3334 7.17428 9.84106 9 8.00011 9C6.15916 9 4.66678 7.17428 4.66678 5.33333C4.66678 3.49238 6.15916 2 8.00011 2C9.84106 2 11.3334 3.49238 11.3334 5.33333ZM11.7486 12.5381C11.723 12.6149 11.6512 12.6667 11.5703 12.6667H4.42994C4.34903 12.6667 4.2772 12.6149 4.25161 12.5381C4.22767 12.4663 4.24917 12.3871 4.30616 12.3372L4.53427 12.1376C5.37243 11.4042 6.4483 11 7.56203 11H8.43819C9.55192 11 10.6278 11.4042 11.466 12.1376L11.6941 12.3372C11.7511 12.3871 11.7726 12.4663 11.7486 12.5381ZM2.9867 12.9598C2.79289 12.3783 2.96691 11.7374 3.42815 11.3338L3.65626 11.1342C4.73748 10.1881 6.12534 9.66667 7.56203 9.66667H8.43819C9.87488 9.66667 11.2627 10.1881 12.344 11.1342L12.5721 11.3338C13.0333 11.7374 13.2073 12.3783 13.0135 12.9598C12.8064 13.581 12.2251 14 11.5703 14H4.42994C3.77512 14 3.19377 13.581 2.9867 12.9598Z" fill="#1E1E1E"/>
</svg>
