<svg width="24" height="24" viewBox="0 0 24 24" fill="none" xmlns="http://www.w3.org/2000/svg">
<path fill-rule="evenodd" clip-rule="evenodd" d="M5 5V9H9V5H5ZM20 13H14C13.4477 13 13 13.4477 13 14V20C13 20.5523 13.4477 21 14 21H20C20.5523 21 21 20.5523 21 20V14C21 13.4477 20.5523 13 20 13ZM11 10V4C11 3.44772 10.5523 3 10 3H4C3.44772 3 3 3.44772 3 4V10C3 10.5523 3.44772 11 4 11H10C10.5523 11 11 10.5523 11 10ZM13 4V10C13 10.5523 13.4477 11 14 11H20C20.5523 11 21 10.5523 21 10V4C21 3.44772 20.5523 3 20 3H14C13.4477 3 13 3.44772 13 4ZM5 15V19H9V15H5ZM15 5V9H19V5H15ZM15 15V19H19V15H15ZM10 13C10.5523 13 11 13.4477 11 14V20C11 20.5523 10.5523 21 10 21H4C3.44772 21 3 20.5523 3 20V14C3 13.4477 3.44772 13 4 13H10Z" fill="black"/>
</svg>
