<svg width="24" height="24" viewBox="0 0 24 24" fill="none" xmlns="http://www.w3.org/2000/svg">
<path fill-rule="evenodd" clip-rule="evenodd" d="M12 2C10.8954 2 10 2.89543 10 4V4.28988C7.10851 5.15043 5 7.82898 5 11V15L4.10557 15.4472C3.83654 15.5817 3.60685 15.772 3.42768 16C3.1556 16.3462 3 16.7793 3 17.2361V18H5H19H21V17.2361C21 16.7793 20.8444 16.3462 20.5723 16C20.3932 15.772 20.1635 15.5817 19.8944 15.4472L19 15V11C19 7.82898 16.8915 5.15043 14 4.28988V4C14 2.89543 13.1046 2 12 2ZM17 16V15V11C17 8.23858 14.7614 6 12 6C9.23858 6 7 8.23858 7 11V15V16H17ZM15 19C15 20.1046 14.1046 21 13 21H11C9.89543 21 9 20.1046 9 19H15Z" fill="black"/>
</svg>
