<svg width="16" height="16" viewBox="0 0 16 16" fill="none" xmlns="http://www.w3.org/2000/svg">
<path fill-rule="evenodd" clip-rule="evenodd" d="M3.33333 3.33333V6H6V3.33333H3.33333ZM13.3333 8.66667H9.33333C8.96514 8.66667 8.66667 8.96514 8.66667 9.33333V13.3333C8.66667 13.7015 8.96514 14 9.33333 14H13.3333C13.7015 14 14 13.7015 14 13.3333V9.33333C14 8.96514 13.7015 8.66667 13.3333 8.66667ZM7.33333 6.66667V2.66667C7.33333 2.29848 7.03486 2 6.66667 2H2.66667C2.29848 2 2 2.29848 2 2.66667V6.66667C2 7.03486 2.29848 7.33333 2.66667 7.33333H6.66667C7.03486 7.33333 7.33333 7.03486 7.33333 6.66667ZM8.66667 2.66667V6.66667C8.66667 7.03486 8.96514 7.33333 9.33333 7.33333H13.3333C13.7015 7.33333 14 7.03486 14 6.66667V2.66667C14 2.29848 13.7015 2 13.3333 2H9.33333C8.96514 2 8.66667 2.29848 8.66667 2.66667ZM3.33333 10V12.6667H6V10H3.33333ZM10 3.33333V6H12.6667V3.33333H10ZM10 10V12.6667H12.6667V10H10ZM6.66667 8.66667C7.03486 8.66667 7.33333 8.96514 7.33333 9.33333V13.3333C7.33333 13.7015 7.03486 14 6.66667 14H2.66667C2.29848 14 2 13.7015 2 13.3333V9.33333C2 8.96514 2.29848 8.66667 2.66667 8.66667H6.66667Z" fill="#1E1E1E"/>
</svg>
