<svg width="16" height="16" viewBox="0 0 16 16" fill="none" xmlns="http://www.w3.org/2000/svg">
<path fill-rule="evenodd" clip-rule="evenodd" d="M3.33333 7.99996C3.33333 10.3516 5.07282 12.297 7.33531 12.6197C7.69981 12.6716 8 12.9651 8 13.3333C8 13.7015 7.70037 14.0039 7.3344 13.9635C4.33392 13.6323 2 11.0887 2 7.99996C2 6.34311 2.67157 4.84311 3.75736 3.75732L3.12468 3.12464C2.93297 2.93293 3.03815 2.60472 3.30558 2.56014L6.20635 2.07668C6.43196 2.03908 6.62755 2.23467 6.58995 2.46028L6.10649 5.36105C6.06191 5.62848 5.7337 5.73366 5.54199 5.54195L4.70017 4.70013C3.85567 5.54463 3.33333 6.7113 3.33333 7.99996ZM8 2.66663C8 3.03482 8.30019 3.3283 8.66469 3.38027C10.9272 3.70291 12.6667 5.6483 12.6667 7.99996C12.6667 9.28863 12.1443 10.4553 11.2998 11.2998L10.458 10.458C10.2663 10.2663 9.93809 10.3714 9.89351 10.6389L9.41005 13.5396C9.37245 13.7653 9.56804 13.9608 9.79365 13.9232L12.6944 13.4398C12.9619 13.3952 13.067 13.067 12.8753 12.8753L12.2426 12.2426C13.3284 11.1568 14 9.65682 14 7.99996C14 4.91123 11.6661 2.36761 8.6656 2.03647C8.29963 1.99608 8 2.29844 8 2.66663Z" fill="#1E1E1E"/>
</svg>
