<svg width="24" height="24" viewBox="0 0 24 24" fill="none" xmlns="http://www.w3.org/2000/svg">
<path fill-rule="evenodd" clip-rule="evenodd" d="M5 9.99997H8.37136L19 5.91203V17.0879L8.37136 13H5V9.99997ZM11 16.1538L8 15V18H11V16.1538ZM13 16.923L18.282 18.9546C19.592 19.4584 21 18.4915 21 17.0879V5.91203C21 4.50847 19.592 3.54149 18.282 4.04534L8 7.99997H5C3.89543 7.99997 3 8.8954 3 9.99997V13C3 14.1045 3.89543 15 5 15L6 15V18C6 19.1045 6.89543 20 8 20H11C12.1046 20 13 19.1045 13 18V16.923Z" fill="black"/>
</svg>
