<svg width="16" height="16" viewBox="0 0 16 16" fill="none" xmlns="http://www.w3.org/2000/svg">
<path fill-rule="evenodd" clip-rule="evenodd" d="M8 12.6667C10.5773 12.6667 12.6667 10.5773 12.6667 8C12.6667 5.42267 10.5773 3.33333 8 3.33333C5.42267 3.33333 3.33333 5.42267 3.33333 8C3.33333 10.5773 5.42267 12.6667 8 12.6667ZM8 14C11.3137 14 14 11.3137 14 8C14 4.68629 11.3137 2 8 2C4.68629 2 2 4.68629 2 8C2 11.3137 4.68629 14 8 14ZM7 5C7 4.81591 7.14924 4.66667 7.33333 4.66667H8.66667C8.85076 4.66667 9 4.81591 9 5V8.33333C9 8.51743 8.85076 8.66667 8.66667 8.66667H7.33333C7.14924 8.66667 7 8.51743 7 8.33333V5ZM7.33333 9.66667C7.14924 9.66667 7 9.81591 7 10V11C7 11.1841 7.14924 11.3333 7.33333 11.3333H8.66667C8.85076 11.3333 9 11.1841 9 11V10C9 9.81591 8.85076 9.66667 8.66667 9.66667H7.33333Z" fill="#1E1E1E"/>
</svg>
