<svg width="16" height="16" viewBox="0 0 16 16" fill="none" xmlns="http://www.w3.org/2000/svg">
<path fill-rule="evenodd" clip-rule="evenodd" d="M8 1.33337C7.26362 1.33337 6.66667 1.93033 6.66667 2.66671V2.85996C4.73901 3.43366 3.33333 5.21936 3.33333 7.33337V10L2.73705 10.2982C2.55769 10.3879 2.40457 10.5147 2.28512 10.6667C2.10373 10.8975 2 11.1863 2 11.4908V12H3.33333H12.6667H14V11.4908C14 11.1863 13.8963 10.8975 13.7149 10.6667C13.5954 10.5147 13.4423 10.3879 13.263 10.2982L12.6667 10V7.33337C12.6667 5.21936 11.261 3.43366 9.33333 2.85996V2.66671C9.33333 1.93033 8.73638 1.33337 8 1.33337ZM11.3333 10.6667V10V7.33337C11.3333 5.49243 9.84095 4.00004 8 4.00004C6.15905 4.00004 4.66667 5.49243 4.66667 7.33337V10V10.6667H11.3333ZM10 12.6667C10 13.4031 9.40305 14 8.66667 14H7.33333C6.59695 14 6 13.4031 6 12.6667H10Z" fill="#1E1E1E"/>
</svg>
