<svg width="24" height="24" viewBox="0 0 24 24" fill="none" xmlns="http://www.w3.org/2000/svg">
<path fill-rule="evenodd" clip-rule="evenodd" d="M19.5858 20.9999L16.4874 17.9016C15.1206 18.6133 13.5849 18.9999 12 18.9999C8.86222 18.9999 5.9176 17.4846 4.09381 14.9313L2 11.9999L4.09381 9.06859C4.58971 8.37432 5.16848 7.7568 5.81147 7.22561L3 4.41414C2.60948 4.02361 2.60948 3.39045 3 2.99992C3.39052 2.6094 4.02369 2.6094 4.41421 2.99992L21 19.5857C21.3905 19.9762 21.3905 20.6094 21 20.9999C20.6095 21.3904 19.9763 21.3904 19.5858 20.9999ZM19.4822 15.4821C19.6294 15.3044 19.7709 15.1207 19.9062 14.9313L22 11.9999L19.9062 9.06859C18.0824 6.51528 15.1378 4.99992 12 4.99992C11.0981 4.99992 10.2122 5.12512 9.36423 5.36417L11.0577 7.05761C11.3683 7.01941 11.6829 6.99992 12 6.99992C14.4919 6.99992 16.8304 8.20335 18.2787 10.2311L19.5422 11.9999L18.2787 13.7688C18.208 13.8679 18.1351 13.965 18.0601 14.0601L19.4822 15.4821ZM14.985 16.3992L7.23377 8.64791C6.66356 9.09574 6.15289 9.6268 5.72128 10.2311L4.45781 11.9999L5.72128 13.7688C7.16965 15.7965 9.50813 16.9999 12 16.9999C13.0395 16.9999 14.0524 16.7905 14.985 16.3992Z" fill="black"/>
</svg>
