<svg width="16" height="16" viewBox="0 0 16 16" fill="none" xmlns="http://www.w3.org/2000/svg">
<path fill-rule="evenodd" clip-rule="evenodd" d="M13.0572 13.9999L10.9917 11.9344C10.0804 12.4089 9.05667 12.6666 8.00004 12.6666C5.90819 12.6666 3.94511 11.6564 2.72925 9.95417L1.33337 7.99995L2.72925 6.04573C3.05985 5.58288 3.4457 5.1712 3.87436 4.81707L2.00004 2.94276C1.73969 2.68241 1.73969 2.2603 2.00004 1.99995C2.26039 1.7396 2.6825 1.7396 2.94285 1.99995L14 13.0571C14.2604 13.3175 14.2604 13.7396 14 13.9999C13.7397 14.2603 13.3176 14.2603 13.0572 13.9999ZM12.9882 10.3214C13.0863 10.2029 13.1806 10.0804 13.2708 9.95417L14.6667 7.99995L13.2708 6.04573C12.055 4.34352 10.0919 3.33328 8.00004 3.33328C7.39878 3.33328 6.80816 3.41674 6.24286 3.57611L7.37182 4.70507C7.5789 4.67961 7.78864 4.66662 8.00004 4.66662C9.66129 4.66662 11.2203 5.4689 12.1859 6.82071L13.0282 7.99995L12.1859 9.17919C12.1387 9.24524 12.0901 9.30998 12.0401 9.37338L12.9882 10.3214ZM9.99005 10.9328L4.82256 5.76527C4.44241 6.06383 4.10197 6.41787 3.81422 6.82071L2.97191 7.99995L3.81423 9.17919C4.77981 10.531 6.33879 11.3333 8.00004 11.3333C8.69306 11.3333 9.36828 11.1937 9.99005 10.9328Z" fill="#1E1E1E"/>
</svg>
