<svg width="24" height="24" viewBox="0 0 24 24" fill="none" xmlns="http://www.w3.org/2000/svg">
<path fill-rule="evenodd" clip-rule="evenodd" d="M17.4586 5H6.54134C6.0525 5 5.63531 5.35341 5.55495 5.8356L4.36088 13H19.639L18.445 5.8356C18.3646 5.35341 17.9474 5 17.4586 5ZM3.18042 15H4.99996V18C4.99996 19.6569 6.34311 21 7.99996 21H16C17.6568 21 19 19.6569 19 18V15H20.8195C21.4374 15 21.9075 14.4451 21.8059 13.8356L20.4178 5.5068C20.1767 4.06024 18.9251 3 17.4586 3H6.54134C5.07483 3 3.82326 4.06024 3.58216 5.5068L2.19403 13.8356C2.09244 14.4451 2.56248 15 3.18042 15ZM6.99996 15H17V18C17 18.5523 16.5522 19 16 19H13V16H11V19H7.99996C7.44768 19 6.99996 18.5523 6.99996 18V15Z" fill="black"/>
</svg>
