<svg width="16" height="16" viewBox="0 0 16 16" fill="none" xmlns="http://www.w3.org/2000/svg">
<path fill-rule="evenodd" clip-rule="evenodd" d="M7.33339 2H8.66672V4.05531C9.63378 4.21755 10.4832 4.72679 11.0825 5.45062L12.863 4.42265L13.5297 5.57735L11.75 6.60484C11.9117 7.03922 12.0001 7.50929 12.0001 8C12.0001 8.49071 11.9117 8.96077 11.75 9.39516L13.5297 10.4226L12.863 11.5773L11.0825 10.5494C10.4832 11.2732 9.63378 11.7825 8.66672 11.9447V14H7.33339V11.9447C6.36637 11.7825 5.51701 11.2733 4.91768 10.5495L3.13737 11.5773L2.4707 10.4226L4.25014 9.39529C4.08843 8.96087 4.00005 8.49075 4.00005 8C4.00005 7.50924 4.08843 7.03913 4.25014 6.60471L2.4707 5.57735L3.13737 4.42265L4.91769 5.45051C5.51701 4.72674 6.36637 4.21754 7.33339 4.05531V2ZM8 10.6667C9.47276 10.6667 10.6667 9.47276 10.6667 8C10.6667 6.52724 9.47276 5.33333 8 5.33333C6.52724 5.33333 5.33333 6.52724 5.33333 8C5.33333 9.47276 6.52724 10.6667 8 10.6667Z" fill="#1E1E1E"/>
</svg>
