<svg width="16" height="16" viewBox="0 0 16 16" fill="none" xmlns="http://www.w3.org/2000/svg">
<path fill-rule="evenodd" clip-rule="evenodd" d="M2.66675 4.66667C2.66675 4.29848 2.96522 4 3.33341 4H12.6667C13.0349 4 13.3334 4.29848 13.3334 4.66667C13.3334 5.03486 13.0349 5.33333 12.6667 5.33333H3.33341C2.96522 5.33333 2.66675 5.03486 2.66675 4.66667ZM2.66675 8C2.66675 7.63181 2.96522 7.33333 3.33341 7.33333H12.6667C13.0349 7.33333 13.3334 7.63181 13.3334 8C13.3334 8.36819 13.0349 8.66667 12.6667 8.66667H3.33341C2.96522 8.66667 2.66675 8.36819 2.66675 8ZM13.3334 11.3333C13.3334 10.9651 13.0349 10.6667 12.6667 10.6667H3.33341C2.96522 10.6667 2.66675 10.9651 2.66675 11.3333C2.66675 11.7015 2.96522 12 3.33341 12H12.6667C13.0349 12 13.3334 11.7015 13.3334 11.3333Z" fill="#1E1E1E"/>
</svg>
