<svg width="16" height="16" viewBox="0 0 16 16" fill="none" xmlns="http://www.w3.org/2000/svg">
<path fill-rule="evenodd" clip-rule="evenodd" d="M3.36942 7.77895C4.33595 8.74548 5.74836 8.99438 6.94453 8.52564L8.55487 10.136L9.02627 9.66457L9.49768 10.136L9.02627 10.6074L9.49768 11.0788L9.96908 10.6074L10.4405 11.0788L9.96908 11.5502L11.1476 12.7287C12.4815 12.4209 12.9561 10.766 11.9881 9.79798L8.83015 6.64002C9.29889 5.44385 9.04999 4.03144 8.08346 3.06491C6.78172 1.76316 4.67117 1.76316 3.36942 3.06491C2.06767 4.36666 2.06767 6.47721 3.36942 7.77895ZM7.14065 6.83614C6.35961 7.61719 5.09328 7.61719 4.31223 6.83614C3.53118 6.0551 3.53118 4.78877 4.31223 4.00772C5.09328 3.22667 6.35961 3.22667 7.14065 4.00772C7.9217 4.78877 7.9217 6.0551 7.14065 6.83614ZM8.19844 7.39421L11.4983 10.694L11.734 10.4583L8.43414 7.15851L8.19844 7.39421Z" fill="#1E1E1E"/>
</svg>
