<svg width="16" height="16" viewBox="0 0 16 16" fill="none" xmlns="http://www.w3.org/2000/svg">
<path fill-rule="evenodd" clip-rule="evenodd" d="M11.3333 3.33333H4.66663C4.29844 3.33333 3.99996 3.63181 3.99996 4V5.33333H12V4C12 3.63181 11.7015 3.33333 11.3333 3.33333ZM3.99996 12V6.66667H12V12C12 12.3682 11.7015 12.6667 11.3333 12.6667H4.66663C4.29844 12.6667 3.99996 12.3682 3.99996 12ZM4.66663 2C3.56206 2 2.66663 2.89543 2.66663 4V12C2.66663 13.1046 3.56206 14 4.66663 14H11.3333C12.4379 14 13.3333 13.1046 13.3333 12V4C13.3333 2.89543 12.4379 2 11.3333 2H4.66663ZM9.99996 8H5.99996V9.33333H9.99996V8Z" fill="#1E1E1E"/>
</svg>
