<svg width="24" height="24" viewBox="0 0 24 24" fill="none" xmlns="http://www.w3.org/2000/svg">
<path fill-rule="evenodd" clip-rule="evenodd" d="M12 19C15.866 19 19 15.866 19 12C19 8.13401 15.866 5 12 5C8.13401 5 5 8.13401 5 12C5 15.866 8.13401 19 12 19ZM12 21C16.9706 21 21 16.9706 21 12C21 7.02944 16.9706 3 12 3C7.02944 3 3 7.02944 3 12C3 16.9706 7.02944 21 12 21ZM10.5 7.5C10.5 7.22386 10.7239 7 11 7H13C13.2761 7 13.5 7.22386 13.5 7.5V12.5C13.5 12.7761 13.2761 13 13 13H11C10.7239 13 10.5 12.7761 10.5 12.5V7.5ZM11 14.5C10.7239 14.5 10.5 14.7239 10.5 15V16.5C10.5 16.7761 10.7239 17 11 17H13C13.2761 17 13.5 16.7761 13.5 16.5V15C13.5 14.7239 13.2761 14.5 13 14.5H11Z" fill="black"/>
</svg>
