<svg width="24" height="24" viewBox="0 0 24 24" fill="none" xmlns="http://www.w3.org/2000/svg">
<path fill-rule="evenodd" clip-rule="evenodd" d="M6 3H13V5H6C5.44772 5 5 5.44772 5 6V18C5 18.5523 5.44772 19 6 19H13V21H6C4.34315 21 3 19.6569 3 18V6C3 4.34315 4.34315 3 6 3ZM18.5857 11L15.9999 8.4142C15.6094 8.02368 15.6094 7.39051 15.9999 6.99999C16.3904 6.60946 17.0236 6.60946 17.4141 6.99998L21.707 11.2929C22.0976 11.6834 22.0976 12.3166 21.707 12.7071L17.4141 17C17.0236 17.3905 16.3904 17.3905 15.9999 17C15.6094 16.6095 15.6094 15.9763 15.9999 15.5858L18.5857 13H7V11H18.5857Z" fill="black"/>
</svg>
