<svg width="24" height="24" viewBox="0 0 24 24" fill="none" xmlns="http://www.w3.org/2000/svg">
<path fill-rule="evenodd" clip-rule="evenodd" d="M6.85412 4C5.7178 4 4.67901 4.64201 4.17084 5.65836L1.44723 11.1056C1.1657 11.6686 1.1657 12.3314 1.44723 12.8944L4.17084 18.3416C4.67901 19.358 5.7178 20 6.85412 20H19C20.1046 20 21 19.1046 21 18V6C21 4.89543 20.1046 4 19 4H6.85412ZM13.0001 13.4142L16.293 16.7071L17.7072 15.2929L14.4143 12L17.7072 8.70712L16.293 7.29291L13.0001 10.5858L9.7072 7.29291L8.29298 8.70712L11.5859 12L8.29298 15.2929L9.7072 16.7071L13.0001 13.4142Z" fill="black"/>
</svg>
