<svg width="24" height="24" viewBox="0 0 24 24" fill="none" xmlns="http://www.w3.org/2000/svg">
<path fill-rule="evenodd" clip-rule="evenodd" d="M5 12C5 15.5275 7.60923 18.4456 11.003 18.9295C11.5497 19.0075 12 19.4477 12 20C12 20.5523 11.5506 21.0058 11.0016 20.9453C6.50088 20.4485 3 16.6331 3 12C3 9.51472 4.00736 7.26473 5.63604 5.63605L4.68702 4.68703C4.39945 4.39946 4.55722 3.90714 4.95837 3.84028L9.30952 3.11509C9.64793 3.05868 9.94132 3.35207 9.88492 3.69048L9.15973 8.04163C9.09287 8.44278 8.60055 8.60056 8.31298 8.31299L7.05025 7.05026C5.7835 8.31701 5 10.067 5 12ZM12 4.00001C12 4.55229 12.4503 4.9925 12.997 5.07047C16.3908 5.55442 19 8.47251 19 12C19 13.933 18.2165 15.683 16.9497 16.9498L15.687 15.687C15.3995 15.3995 14.9071 15.5572 14.8403 15.9584L14.1151 20.3095C14.0587 20.6479 14.3521 20.9413 14.6905 20.8849L19.0416 20.1597C19.4428 20.0929 19.6005 19.6006 19.313 19.313L18.364 18.364C19.9926 16.7353 21 14.4853 21 12C21 7.3669 17.4991 3.55147 12.9984 3.05476C12.4494 2.99417 12 3.44772 12 4.00001Z" fill="black"/>
</svg>
