<svg width="24" height="24" viewBox="0 0 24 24" fill="none" xmlns="http://www.w3.org/2000/svg">
<path d="M2.5 7.5C2.5 7.22386 2.72386 7 3 7C3.27614 7 3.5 7.22386 3.5 7.5V16.5C3.5 16.7761 3.27614 17 3 17C2.72386 17 2.5 16.7761 2.5 16.5V7.5Z" fill="black"/>
<path d="M4.5 7.5C4.5 7.22386 4.72386 7 5 7C5.27614 7 5.5 7.22386 5.5 7.5V16.5C5.5 16.7761 5.27614 17 5 17C4.72386 17 4.5 16.7761 4.5 16.5V7.5Z" fill="black"/>
<path d="M6.5 7.5C6.5 7.22386 6.72386 7 7 7H8C8.27614 7 8.5 7.22386 8.5 7.5V16.5C8.5 16.7761 8.27614 17 8 17H7C6.72386 17 6.5 16.7761 6.5 16.5V7.5Z" fill="black"/>
<path d="M9.5 7.5C9.5 7.22386 9.72386 7 10 7C10.2761 7 10.5 7.22386 10.5 7.5V16.5C10.5 16.7761 10.2761 17 10 17C9.72386 17 9.5 16.7761 9.5 16.5V7.5Z" fill="black"/>
<path d="M11.5 7.5C11.5 7.22386 11.7239 7 12 7H14C14.2761 7 14.5 7.22386 14.5 7.5V16.5C14.5 16.7761 14.2761 17 14 17H12C11.7239 17 11.5 16.7761 11.5 16.5V7.5Z" fill="black"/>
<path d="M15.5 7.5C15.5 7.22386 15.7239 7 16 7C16.2761 7 16.5 7.22386 16.5 7.5V16.5C16.5 16.7761 16.2761 17 16 17C15.7239 17 15.5 16.7761 15.5 16.5V7.5Z" fill="black"/>
<path d="M17.5 7.5C17.5 7.22386 17.7239 7 18 7C18.2761 7 18.5 7.22386 18.5 7.5V16.5C18.5 16.7761 18.2761 17 18 17C17.7239 17 17.5 16.7761 17.5 16.5V7.5Z" fill="black"/>
<path d="M19.5 7.5C19.5 7.22386 19.7239 7 20 7H21C21.2761 7 21.5 7.22386 21.5 7.5V16.5C21.5 16.7761 21.2761 17 21 17H20C19.7239 17 19.5 16.7761 19.5 16.5V7.5Z" fill="black"/>
</svg>
