<svg width="16" height="16" viewBox="0 0 16 16" fill="none" xmlns="http://www.w3.org/2000/svg">
<path fill-rule="evenodd" clip-rule="evenodd" d="M3.33333 4.66671H9.33333V6.00004H6.66667C5.93029 6.00004 5.33333 6.59699 5.33333 7.33337V8.66671H3.33333L3.33333 4.66671ZM5.33333 10H3.33333C2.59695 10 2 9.40309 2 8.66671V4.66671C2 3.93033 2.59695 3.33337 3.33333 3.33337H9.33333C10.0697 3.33337 10.6667 3.93033 10.6667 4.66671V6.00004H12.6667C13.403 6.00004 14 6.59699 14 7.33337V11.3334C14 12.0698 13.403 12.6667 12.6667 12.6667H6.66667C5.93029 12.6667 5.33333 12.0698 5.33333 11.3334V10ZM10.6667 7.33337H12.6667V11.3334H6.66667V10H9.33333C10.0697 10 10.6667 9.40309 10.6667 8.66671V7.33337ZM9.33333 7.33337V8.66671H6.66667V7.33337H9.33333Z" fill="#1E1E1E"/>
</svg>
