<svg width="16" height="16" viewBox="0 0 16 16" fill="none" xmlns="http://www.w3.org/2000/svg">
<path fill-rule="evenodd" clip-rule="evenodd" d="M2.66671 13.3333H3.56214C3.91576 13.3333 4.2549 13.1928 4.50495 12.9428L10.9192 6.52856L9.47145 5.08085L3.05723 11.4951C2.80718 11.7451 2.66671 12.0842 2.66671 12.4379V13.3333ZM12.7239 4.72383L11.862 5.58575L10.4143 4.13804L11.2762 3.27611C11.676 2.87633 12.3241 2.87633 12.7239 3.27611C13.1237 3.67589 13.1237 4.32405 12.7239 4.72383ZM2.11442 10.5523C1.61433 11.0523 1.33337 11.7306 1.33337 12.4379V14C1.33337 14.3682 1.63185 14.6666 2.00004 14.6666H3.56214C4.26938 14.6666 4.94766 14.3857 5.44776 13.8856L6.00004 13.3333H13.3334C13.7016 13.3333 14 13.0348 14 12.6666C14 12.2984 13.7016 12 13.3334 12H7.33337L13.6667 5.66664C14.5872 4.74616 14.5872 3.25378 13.6667 2.3333C12.7462 1.41283 11.2538 1.41283 10.3334 2.3333L2.11442 10.5523Z" fill="#1E1E1E"/>
</svg>
