<svg width="16" height="16" viewBox="0 0 16 16" fill="none" xmlns="http://www.w3.org/2000/svg">
<path fill-rule="evenodd" clip-rule="evenodd" d="M4 2H8.66667V3.33333H4C3.63181 3.33333 3.33333 3.63181 3.33333 4V12C3.33333 12.3682 3.63181 12.6667 4 12.6667H8.66667V14H4C2.89543 14 2 13.1046 2 12V4C2 2.89543 2.89543 2 4 2ZM12.3905 7.33333L10.6666 5.60947C10.4063 5.34912 10.4063 4.92701 10.6666 4.66666C10.927 4.40631 11.3491 4.40631 11.6094 4.66666L14.4714 7.52859C14.7317 7.78894 14.7317 8.21105 14.4714 8.4714L11.6094 11.3333C11.3491 11.5937 10.927 11.5937 10.6666 11.3333C10.4063 11.073 10.4063 10.6509 10.6666 10.3905L12.3905 8.66667H4.66667V7.33333H12.3905Z" fill="#1E1E1E"/>
</svg>
