<svg width="24" height="24" viewBox="0 0 24 24" fill="none" xmlns="http://www.w3.org/2000/svg">
<path d="M2.62008 14.2952C2.04936 13.4801 2.00044 13.1608 2.00864 13.0633C2.00866 13.063 2.00868 13.0627 2.00871 13.0623C2.0099 13.0438 2.02019 12.8841 2.57886 12.4929L15.6853 3.31566C16.244 2.92447 16.3976 2.96942 16.4154 2.97463C16.4158 2.97475 16.4161 2.97484 16.4163 2.97491C16.5108 3.00056 16.7941 3.15573 17.3648 3.97081L17.895 4.72806C17.3817 5.64369 17.5463 6.84513 18.1436 7.6982C18.7409 8.55128 19.8136 9.11689 20.8496 8.94762L21.3798 9.70487C21.9506 10.5199 21.9995 10.8392 21.9913 10.9368C21.9913 10.937 21.9912 10.9374 21.9912 10.9378C21.99 10.9563 21.9797 11.116 21.4211 11.5072L8.31463 20.6844C7.75595 21.0756 7.60236 21.0306 7.58455 21.0254C7.58417 21.0253 7.58385 21.0252 7.58359 21.0251C7.48914 20.9995 7.20583 20.8443 6.63511 20.0292L6.10488 19.272C6.61828 18.3564 6.45366 17.1549 5.85632 16.3019C5.25899 15.4488 4.18632 14.8832 3.15031 15.0524L2.62008 14.2952Z" stroke="black" stroke-width="2" stroke-miterlimit="16"/>
</svg>
