<svg width="24" height="24" viewBox="0 0 24 24" fill="none" xmlns="http://www.w3.org/2000/svg">
<path fill-rule="evenodd" clip-rule="evenodd" d="M6 3H11V5H6C5.44772 5 5 5.44772 5 6V18C5 18.5523 5.44772 19 6 19H11V21H6C4.34315 21 3 19.6569 3 18V6C3 4.34315 4.34315 3 6 3ZM11.4142 11L14 8.4142C14.3905 8.02368 14.3905 7.39051 14 6.99999C13.6095 6.60946 12.9763 6.60946 12.5858 6.99998L8.29289 11.2929C7.90237 11.6834 7.90237 12.3166 8.29289 12.7071L12.5858 17C12.9763 17.3905 13.6095 17.3905 14 17C14.3905 16.6095 14.3905 15.9763 14 15.5858L11.4142 13H21.9999V11H11.4142Z" fill="black"/>
</svg>
