<svg width="24" height="24" viewBox="0 0 24 24" fill="none" xmlns="http://www.w3.org/2000/svg">
<path fill-rule="evenodd" clip-rule="evenodd" d="M12 22C17.5228 22 22 17.5228 22 12C22 6.47715 17.5228 2 12 2C6.47715 2 2 6.47715 2 12C2 17.5228 6.47715 22 12 22ZM16 16.0001C15.6094 16.3906 14.9763 16.3906 14.5857 16.0001L12 13.4143L9.41417 16.0001C9.02364 16.3906 8.39048 16.3906 7.99995 16.0001C7.60943 15.6096 7.60943 14.9764 7.99995 14.5859L10.5857 12.0001L7.99995 9.41429C7.60943 9.02377 7.60943 8.3906 7.99995 8.00008C8.39048 7.60955 9.02364 7.60955 9.41417 8.00008L12 10.5859L14.5857 8.00008C14.9763 7.60955 15.6094 7.60955 16 8.00008C16.3905 8.3906 16.3905 9.02376 16 9.41429L13.4142 12.0001L16 14.5859C16.3905 14.9764 16.3905 15.6096 16 16.0001Z" fill="black"/>
</svg>
