<svg width="16" height="16" viewBox="0 0 16 16" fill="none" xmlns="http://www.w3.org/2000/svg">
<path fill-rule="evenodd" clip-rule="evenodd" d="M8.00004 14.6666C11.6819 14.6666 14.6667 11.6818 14.6667 7.99992C14.6667 4.31802 11.6819 1.33325 8.00004 1.33325C4.31814 1.33325 1.33337 4.31802 1.33337 7.99992C1.33337 11.6818 4.31814 14.6666 8.00004 14.6666ZM10.6667 10.6666C10.4063 10.927 9.98422 10.927 9.72387 10.6666L8.00001 8.94278L6.27615 10.6666C6.0158 10.927 5.59369 10.927 5.33334 10.6666C5.07299 10.4063 5.07299 9.98418 5.33334 9.72383L7.0572 7.99997L5.33334 6.27611C5.07299 6.01576 5.07299 5.59365 5.33334 5.3333C5.59369 5.07295 6.0158 5.07295 6.27615 5.3333L8.00001 7.05716L9.72387 5.3333C9.98422 5.07295 10.4063 5.07295 10.6667 5.3333C10.927 5.59365 10.927 6.01576 10.6667 6.27611L8.94282 7.99997L10.6667 9.72383C10.927 9.98418 10.927 10.4063 10.6667 10.6666Z" fill="#1E1E1E"/>
</svg>
