<svg width="24" height="24" viewBox="0 0 24 24" fill="none" xmlns="http://www.w3.org/2000/svg">
<path fill-rule="evenodd" clip-rule="evenodd" d="M5.05419 11.6684C6.50398 13.1182 8.6226 13.4915 10.4169 12.7884L12.8324 15.2039L13.5395 14.4968L14.2466 15.2039L13.5395 15.911L14.2466 16.6181L14.9537 15.911L15.6608 16.6181L14.9537 17.3252L16.7214 19.093C18.7223 18.6313 19.4342 16.1489 17.9822 14.6969L13.2453 9.95997C13.9484 8.16571 13.5751 6.0471 12.1253 4.5973C10.1726 2.64468 7.00681 2.64468 5.05419 4.5973C3.10157 6.54992 3.10157 9.71575 5.05419 11.6684ZM10.711 10.2542C9.53947 11.4257 7.63997 11.4257 6.4684 10.2542C5.29683 9.08258 5.29683 7.18309 6.4684 6.01151C7.63997 4.83994 9.53947 4.83994 10.711 6.01151C11.8826 7.18309 11.8826 9.08258 10.711 10.2542ZM12.2977 11.0913L17.2475 16.041L17.601 15.6874L12.6513 10.7377L12.2977 11.0913Z" fill="#1E1E1E"/>
</svg>
