<svg width="16" height="16" viewBox="0 0 16 16" fill="none" xmlns="http://www.w3.org/2000/svg">
<path fill-rule="evenodd" clip-rule="evenodd" d="M12.6667 3.33333H3.33333L3.33333 12.6667H12.6667V3.33333ZM3.33333 2C2.59695 2 2 2.59695 2 3.33333V12.6667C2 13.403 2.59695 14 3.33333 14H12.6667C13.403 14 14 13.403 14 12.6667V3.33333C14 2.59695 13.403 2 12.6667 2H3.33333ZM4.66667 4.66667H6V6H4.66667V4.66667ZM6 7.33333H4.66667V8.66667H6V7.33333ZM7.33333 4.66667H8.66667V6H7.33333V4.66667ZM8.66667 7.33333H7.33333V8.66667H8.66667V7.33333ZM10 4.66667H11.3333V6H10V4.66667ZM11.3333 7.33333H10V8.66667H11.3333V7.33333Z" fill="#1E1E1E"/>
</svg>
