<svg width="16" height="16" viewBox="0 0 16 16" fill="none" xmlns="http://www.w3.org/2000/svg">
<path fill-rule="evenodd" clip-rule="evenodd" d="M4.03071 9.79996L2.9057 7.99996L4.03071 6.19995C4.88608 4.83137 6.38614 3.99996 8.00004 3.99996C9.61394 3.99996 11.114 4.83137 11.9694 6.19995L13.0944 7.99996L11.9694 9.79996C11.114 11.1686 9.61394 12 8.00004 12C6.38614 12 4.88608 11.1686 4.03071 9.79996ZM2.90004 10.5066L1.33337 7.99996L2.90004 5.49329C3.99906 3.73486 5.92642 2.66663 8.00004 2.66663C10.0737 2.66663 12.001 3.73486 13.1 5.49329L14.6667 7.99996L13.1 10.5066C12.001 12.2651 10.0737 13.3333 8.00004 13.3333C5.92642 13.3333 3.99906 12.2651 2.90004 10.5066ZM8.00004 9.99996C9.10461 9.99996 10 9.10453 10 7.99996C10 6.89539 9.10461 5.99996 8.00004 5.99996C6.89547 5.99996 6.00004 6.89539 6.00004 7.99996C6.00004 9.10453 6.89547 9.99996 8.00004 9.99996Z" fill="#1E1E1E"/>
</svg>
