<svg width="24" height="24" viewBox="0 0 24 24" fill="none" xmlns="http://www.w3.org/2000/svg">
<path fill-rule="evenodd" clip-rule="evenodd" d="M4 20H5.34315C5.87358 20 6.38229 19.7893 6.75736 19.4142L16.3787 9.79291L14.2071 7.62133L4.58579 17.2427C4.21071 17.6177 4 18.1264 4 18.6569V20ZM19.0858 7.0858L17.7929 8.37869L15.6213 6.20712L16.9142 4.91423C17.5139 4.31456 18.4861 4.31456 19.0858 4.91423C19.6854 5.51389 19.6854 6.48614 19.0858 7.0858ZM3.17157 15.8284C2.42143 16.5786 2 17.596 2 18.6569V21C2 21.5523 2.44772 22 3 22H5.34315C6.40401 22 7.42143 21.5786 8.17157 20.8284L9 20H20C20.5523 20 21 19.5523 21 19C21 18.4477 20.5523 18 20 18H11L20.5 8.50001C21.8807 7.1193 21.8807 4.88072 20.5 3.50001C19.1193 2.1193 16.8807 2.1193 15.5 3.50001L3.17157 15.8284Z" fill="black"/>
</svg>
