<svg width="16" height="16" viewBox="0 0 16 16" fill="none" xmlns="http://www.w3.org/2000/svg">
<path fill-rule="evenodd" clip-rule="evenodd" d="M4.56945 2.66663C3.81191 2.66663 3.11938 3.09463 2.7806 3.7722L0.964861 7.40367C0.777176 7.77904 0.777175 8.22087 0.96486 8.59624L2.7806 12.2277C3.11938 12.9053 3.81191 13.3333 4.56945 13.3333H12.6667C13.4031 13.3333 14.0001 12.7363 14.0001 12V3.99996C14.0001 3.26358 13.4031 2.66663 12.6667 2.66663H4.56945ZM8.66677 8.94278L10.862 11.138L11.8048 10.1952L9.60958 7.99997L11.8048 5.80471L10.862 4.8619L8.66677 7.05716L6.47151 4.8619L5.5287 5.80471L7.72396 7.99997L5.5287 10.1952L6.47151 11.138L8.66677 8.94278Z" fill="#1E1E1E"/>
</svg>
